<?xml version="1.0" standalone="no"?>
<!DOCTYPE svg PUBLIC "-//W3C//DTD SVG 20010904//EN"
 "http://www.w3.org/TR/2001/REC-SVG-20010904/DTD/svg10.dtd">
<svg version="1.0" xmlns="http://www.w3.org/2000/svg"
 width="500.000000pt" height="500.000000pt" viewBox="0 0 500.000000 500.000000"
 preserveAspectRatio="xMidYMid meet">

<g transform="translate(0.000000,500.000000) scale(0.100000,-0.100000)"
fill="#000000" stroke="none">
<path d="M210 2500 l0 -1010 2290 0 2290 0 0 1010 0 1010 -2290 0 -2290 0 0
-1010z m2100 605 l0 -175 -932 2 -933 3 -3 173 -2 172 935 0 935 0 0 -175z
m2248 3 l-3 -173 -932 -3 -933 -2 0 175 0 175 935 0 935 0 -2 -172z m-2248
-608 l0 -210 -447 0 -447 0 -338 201 c-186 111 -341 206 -344 210 -3 5 343 9
785 9 l791 0 0 -210z m1612 9 c186 -111 341 -206 344 -210 3 -5 -343 -9 -785
-9 l-791 0 0 210 0 210 447 0 447 0 338 -201z m634 188 c2 -7 3 -77 2 -155
l-3 -142 -245 146 c-135 80 -249 150 -254 155 -6 5 86 9 242 9 198 0 254 -3
258 -13z m-3851 -253 l250 -149 -245 -3 c-134 -1 -250 0 -257 3 -10 3 -13 43
-13 155 0 83 3 149 8 147 4 -2 120 -71 257 -153z m1605 -549 l0 -175 -935 0
-935 0 0 168 c0 93 3 172 7 175 3 4 424 7 935 7 l928 0 0 -175z m2248 -2 l2
-173 -935 0 -935 0 0 175 0 175 933 -2 932 -3 3 -172z"/>
</g>
</svg>
